<svg xmlns="http://www.w3.org/2000/svg" aria-hidden="true" style="position:absolute;width:0;height:0;overflow:hidden">
  <defs>
    <symbol id="icon-x" viewBox="0 0 32 32">
      <path d="M7.626 6.245c-.291.085-.749.427-1.029.774-.432.533-.509 1.054-.24 1.616.088.184 1.011 1.143 3.665 3.806l3.547 3.56-3.551 3.56c-3.907 3.918-3.806 3.799-3.805 4.44 0 .449.157.77.586 1.199.429.43.75.586 1.199.586.634 0 .526.093 4.44-3.808l3.56-3.547 3.56 3.547c3.914 3.901 3.806 3.808 4.44 3.808.449 0 .77-.157 1.199-.586.43-.429.586-.75.586-1.199 0-.634.093-.526-3.808-4.44l-3.547-3.56 3.547-3.56c3.901-3.914 3.808-3.806 3.808-4.44 0-.449-.157-.77-.586-1.199-.429-.43-.75-.586-1.199-.586-.634 0-.526-.093-4.44 3.808l-3.56 3.547-3.56-3.547c-2.721-2.712-3.619-3.576-3.814-3.67-.29-.138-.728-.186-1-.109z"/>
    </symbol>
    <symbol id="icon-basket" viewBox="0 0 32 32">
      <path d="M15.086.056a7.68 7.68 0 0 0-3.598 1.47c-.494.372-1.314 1.23-1.638 1.714-.582.874-1.018 1.91-1.166 2.774l-.066.386H-.008l.03.146c.016.082.966 5.776 2.112 12.654a8954.116 8954.116 0 0 0 2.11 12.654l.032.146h23.448l.032-.146c.016-.082.966-5.776 2.11-12.654 1.146-6.878 2.096-12.572 2.112-12.654l.03-.146h-8.626l-.064-.37c-.146-.856-.592-1.926-1.156-2.776-.342-.516-1.434-1.608-1.948-1.948a7.862 7.862 0 0 0-2.828-1.17c-.554-.106-1.748-.148-2.3-.08zm1.448 1.97c1.254.144 2.308.628 3.192 1.468.498.47.804.868 1.1 1.426.232.434.508 1.186.508 1.38 0 .098-.158.1-5.334.1s-5.334-.002-5.334-.1c0-.194.276-.946.508-1.38.296-.558.602-.956 1.1-1.426a5.445 5.445 0 0 1 3.132-1.466c.514-.06.624-.06 1.128-.002zm-8 8.56V12.8h1.972l.028-4.4h10.932l.028 4.4h1.972V8.374h3.058c1.682 0 3.07.012 3.084.026.022.022-3.466 21.118-3.556 21.506l-.028.12H5.976l-.028-.12C5.858 29.518 2.37 8.422 2.392 8.4c.014-.014 1.402-.026 3.084-.026h3.058v2.212z"/>
    </symbol>
    <symbol id="icon-check" viewBox="0 0 32 32">
      <path d="M20.731 9.664c-.12.032-.31.157-.462.302-.165.157-1.299 1.787-3.123 4.486-1.576 2.333-2.893 4.269-2.926 4.302-.045.046-.339-.352-1.179-1.595-.616-.91-1.189-1.726-1.272-1.81-.262-.264-.451-.334-.888-.336-.339-.002-.437.021-.643.142-.512.301-.76.942-.576 1.488.074.214 3.416 5.17 3.638 5.392.47.472 1.224.482 1.715.022.214-.202 6.978-10.112 7.24-10.611a1.223 1.223 0 0 0-.283-1.493c-.363-.328-.755-.419-1.24-.291z"/>
    </symbol>
    <symbol id="icon-vector" viewBox="0 0 32 32">
      <path d="M32 4.741 27.259 0v23.704L3.555 0-.001 3.556 23.703 27.26H-.001l4.741 4.741h27.259V4.742z"/>
    </symbol>
    <symbol id="icon-menu" viewBox="0 0 32 32">
      <path d="M3.56 6.743a1.383 1.383 0 0 0-.719.605c-.201.341-.209.873-.021 1.256.157.32.521.597.887.677.187.041 1.929.053 5.787.041 5.36-.016 5.527-.019 5.731-.12 1.068-.531.995-2.063-.117-2.46-.296-.105-11.251-.105-11.547 0zm-.004 8.01c-.488.149-.889.712-.889 1.247 0 .323.159.695.399.935.435.435-.751.399 12.935.399 13.689 0 12.5.037 12.936-.4.716-.716.377-1.964-.6-2.211-.153-.039-3.989-.055-12.373-.052-10.583.003-12.183.013-12.407.083zm.141 7.964a2.043 2.043 0 0 0-.415.184c-.925.543-.756 1.988.277 2.356.296.105 16.584.105 16.88 0 .849-.303 1.157-1.359.607-2.08a1.555 1.555 0 0 0-.413-.325l-.287-.159-8.24-.008c-4.532-.005-8.316.009-8.409.032z"/>
    </symbol>
    <symbol id="icon-shopping" viewBox="0 0 32 32">
      <path d="M.72.26C.323.443.16.753.16 1.333c0 .547.152.864.507 1.059.14.077.467.092 2.587.115l2.427.027.579 2.88 1.739 8.672c1.123 5.611 1.167 5.807 1.377 6.24.505 1.04 1.423 1.801 2.497 2.076.4.103.62.105 7.515.105s7.115-.003 7.515-.105c1.348-.345 2.461-1.491 2.772-2.855.067-.288 1.657-8.601 2.137-11.173.14-.745.016-1.124-.453-1.387l-.237-.133-22.133-.053-.593-2.945c-.325-1.62-.621-3.015-.657-3.1-.084-.205-.303-.409-.548-.512C7.02.172 6.584.161 3.964.163 1.14.164.921.171.723.262zm28.469 8.953c.036.063-1.819 9.719-1.917 9.984-.12.323-.444.659-.78.809l-.279.127H12.56l-.279-.127c-.336-.151-.659-.487-.78-.809-.085-.227-2.008-9.735-2.008-9.929 0-.091.471-.095 9.837-.095 5.409 0 9.847.019 9.859.04zM11.303 25.431c-1.145.299-1.979 1.404-1.967 2.607.013 1.276.984 2.391 2.251 2.585a2.563 2.563 0 0 0 2.284-.752c.432-.432.664-.88.752-1.457A2.66 2.66 0 0 0 12 25.341c-.191 0-.504.041-.697.091zm14.666 0c-1.145.299-1.979 1.404-1.967 2.607.013 1.276.984 2.391 2.251 2.585a2.563 2.563 0 0 0 2.284-.752c.432-.432.664-.88.752-1.457a2.66 2.66 0 0 0-2.623-3.073c-.191 0-.504.041-.697.091z"/>
    </symbol>
    <symbol id="icon-logo" viewBox="0 0 32 32">
      <path d="M29.082.314h-4.009c-1.237 0-2.24.983-2.24 2.195v3.929c0 1.212 1.003 2.195 2.24 2.195h4.009c1.237 0 2.24-.983 2.24-2.195V2.509c0-1.212-1.003-2.195-2.24-2.195zM6.73 23.04H2.412C1.08 23.04 0 24.023 0 25.235v3.929c0 1.213 1.08 2.195 2.412 2.195H6.73c1.332 0 2.412-.983 2.412-2.195v-3.929c0-1.212-1.08-2.195-2.412-2.195zM6.25 11.582H2.241c-1.237 0-2.24.983-2.24 2.195v3.929c0 1.212 1.003 2.195 2.24 2.195H6.25c1.237 0 2.24-.983 2.24-2.195v-3.929c0-1.212-1.003-2.195-2.24-2.195zM17.766 22.978h-4.009c-1.237 0-2.24.983-2.24 2.195v3.929c0 1.212 1.003 2.195 2.241 2.195h4.009c1.237 0 2.24-.983 2.24-2.195v-3.929c0-1.212-1.003-2.195-2.24-2.195zM6.25.086H2.241c-1.237 0-2.24.983-2.24 2.195V6.21c0 1.212 1.003 2.195 2.24 2.195H6.25c1.237 0 2.24-.983 2.24-2.195V2.281C8.49 1.069 7.487.086 6.25.086zM18.076 11.697h-4.009c-1.237 0-2.24.983-2.24 2.195v3.929c0 1.212 1.003 2.195 2.24 2.195h4.009c1.237 0 2.24-.983 2.24-2.195v-3.929c0-1.212-1.003-2.195-2.24-2.195zM29.333 22.978h-4.01c-1.237 0-2.24.983-2.24 2.195v3.929c0 1.212 1.003 2.195 2.24 2.195h4.009c1.237 0 2.24-.983 2.24-2.195v-3.929c0-1.212-1.003-2.195-2.24-2.195zM17.591.224h-4.009c-1.237 0-2.24.983-2.24 2.195v3.929c0 1.212 1.003 2.195 2.24 2.195h4.009c1.237 0 2.24-.984 2.24-2.196V2.418c0-1.212-1.003-2.195-2.24-2.195zM29.044 11.926h-4.01c-1.237 0-2.24.983-2.24 2.195v3.929c0 1.212 1.003 2.195 2.24 2.195h4.009c1.237 0 2.24-.983 2.24-2.195v-3.929c0-1.212-1.003-2.195-2.24-2.195z"/>
    </symbol>
    <symbol id="icon-facebook" viewBox="0 0 32 32">
      <path d="M19.52 4.64h.96v3.6h-1.2c-.48 0-.96 0-1.2.24s-.24.48-.24 1.04v1.28h2.64v3.04h-2.64v13.2h-4.08V13.76H11.6v-3.04h2.16V9.68c0-1.76.24-3.04.72-3.6.72-1.04 2.16-1.52 4.32-1.52.24.08.48.08.72.08z"/>
    </symbol>
    <symbol id="icon-instagram" viewBox="0 0 32 32">
      <path d="M28.717 10.756a9.264 9.264 0 0 0-.596-3.145 6.547 6.547 0 0 0-3.743-3.737 9.42 9.42 0 0 0-3.108-.596c-1.367-.061-1.801-.078-5.273-.078s-3.916 0-5.274.078a9.418 9.418 0 0 0-3.106.596 6.541 6.541 0 0 0-3.743 3.737 9.288 9.288 0 0 0-.596 3.101c-.061 1.367-.08 1.8-.08 5.265s0 3.909.08 5.265a9.335 9.335 0 0 0 .596 3.104 6.548 6.548 0 0 0 3.744 3.735 9.37 9.37 0 0 0 3.106.639c1.369.061 1.803.079 5.274.079s3.917 0 5.274-.079a9.362 9.362 0 0 0 3.108-.595 6.555 6.555 0 0 0 3.743-3.737 9.346 9.346 0 0 0 .596-3.104c.061-1.365.08-1.798.08-5.265-.003-3.466-.003-3.906-.082-5.264zM15.99 22.531c-3.631 0-6.572-2.936-6.572-6.561s2.941-6.561 6.572-6.561c3.628 0 6.572 2.936 6.572 6.561s-2.944 6.561-6.572 6.561zm6.833-11.835a1.53 1.53 0 1 1 0-3.06 1.53 1.53 0 1 1 0 3.06z"/>
      <path d="M15.992 19.976a4.004 4.004 0 1 0 0-8.009 4.004 4.004 0 0 0 0 8.009z"/>
    </symbol>
    <symbol id="icon-youtube" viewBox="0 0 32 32">
      <path d="M24.24 6c-1.36-.08-4.16-.16-8.4-.16h-.56c-4.08 0-6.8.08-8.16.24-1.84.16-3.12.64-3.84 1.28-.64.56-1.12 1.6-1.28 2.96-.08.88-.16 2.72-.16 5.52v.4c0 2.64.08 4.48.24 5.36.24 1.28.64 2.24 1.44 2.8.8.64 2.16 1.04 4.08 1.2 1.36.08 4.16.16 8.4.16h.56c4.08 0 6.8-.08 8.16-.24 1.84-.16 3.12-.64 3.84-1.28.64-.56 1.12-1.6 1.28-2.96.08-.88.16-2.72.16-5.52v-.4c0-2.64-.08-4.48-.24-5.36-.24-1.28-.64-2.24-1.44-2.8-.8-.64-2.16-1.04-4.08-1.2zm-3.12 9.84-8.8 5.28V10.56l8.8 5.28z"/>
    </symbol>
    <symbol id="icon-main-logo" viewBox="0 0 32 32">
      <path fill="#77ac63" style="fill: var(--color1, #77ac63)" d="M29.082 0.314h-4.009c-1.237 0-2.24 0.983-2.24 2.195v3.929c0 1.212 1.003 2.195 2.24 2.195h4.009c1.237 0 2.24-0.983 2.24-2.195v-3.929c0-1.212-1.003-2.195-2.24-2.195z"></path>
      <path fill="#77ac63" style="fill: var(--color1, #77ac63)" d="M6.73 23.040h-4.318c-1.332 0-2.412 0.983-2.412 2.195v3.929c0 1.213 1.080 2.195 2.412 2.195h4.318c1.332 0 2.412-0.983 2.412-2.195v-3.929c0-1.212-1.080-2.195-2.412-2.195z"></path>
      <path fill="#77ac63" style="fill: var(--color1, #77ac63)" d="M6.25 11.582h-4.009c-1.237 0-2.24 0.983-2.24 2.195v3.929c0 1.212 1.003 2.195 2.24 2.195h4.009c1.237 0 2.24-0.983 2.24-2.195v-3.929c0-1.212-1.003-2.195-2.24-2.195z"></path>
      <path fill="#77ac63" style="fill: var(--color1, #77ac63)" d="M17.766 22.978h-4.009c-1.237 0-2.24 0.983-2.24 2.195l-0 3.929c0 1.212 1.003 2.195 2.241 2.195h4.009c1.237 0 2.24-0.983 2.24-2.195v-3.929c0-1.213-1.003-2.195-2.24-2.195z"></path>
      <path fill="#77ac63" style="fill: var(--color1, #77ac63)" d="M6.25 0.086h-4.009c-1.237 0-2.24 0.983-2.24 2.195v3.929c0 1.212 1.003 2.195 2.24 2.195h4.009c1.237 0 2.24-0.983 2.24-2.195v-3.929c0-1.212-1.003-2.195-2.24-2.195z"></path>
      <path fill="#77ac63" style="fill: var(--color1, #77ac63)" d="M18.076 11.697h-4.009c-1.237 0-2.24 0.983-2.24 2.195v3.929c0 1.212 1.003 2.195 2.24 2.195h4.009c1.237 0 2.24-0.983 2.24-2.195v-3.929c0-1.212-1.003-2.195-2.24-2.195z"></path>
      <path fill="#77ac63" style="fill: var(--color1, #77ac63)" d="M29.333 22.978h-4.010c-1.237 0-2.24 0.983-2.24 2.195v3.929c0 1.212 1.003 2.195 2.24 2.195h4.009c1.237 0 2.24-0.983 2.24-2.195v-3.929c0-1.213-1.003-2.195-2.24-2.195z"></path>
      <path fill="#77ac63" style="fill: var(--color1, #77ac63)" d="M17.591 0.224h-4.009c-1.237 0-2.24 0.983-2.24 2.195v3.929c0 1.212 1.003 2.195 2.24 2.195h4.009c1.237 0 2.24-0.984 2.24-2.196v-3.929c0-1.212-1.003-2.195-2.24-2.195z"></path>
      <path fill="#77ac63" style="fill: var(--color1, #77ac63)" d="M29.044 11.926h-4.010c-1.237 0-2.24 0.983-2.24 2.195v3.929c0 1.212 1.003 2.195 2.24 2.195h4.009c1.237 0 2.24-0.983 2.24-2.195v-3.929c0-1.212-1.003-2.195-2.24-2.195z"></path>
    </symbol>
  </defs>
</svg>
